<?xml version="1.0" standalone="no"?><!DOCTYPE svg PUBLIC "-//W3C//DTD SVG 1.1//EN" "http://www.w3.org/Graphics/SVG/1.1/DTD/svg11.dtd"><svg height="239" node-id="1" sillyvg="true" template-height="239" template-width="289" version="1.1" viewBox="0 0 289 239" width="289" xmlns="http://www.w3.org/2000/svg" xmlns:xlink="http://www.w3.org/1999/xlink"><defs node-id="102"><linearGradient gradientUnits="userSpaceOnUse" id="未命名的渐变_702" node-id="5" spreadMethod="pad" x1="57.61" x2="57.61" y1="95.93" y2="15.08"><stop offset="0" stop-color="#ff6cec"></stop><stop offset="1" stop-color="#ffe0db"></stop></linearGradient><linearGradient gradientTransform="matrix(0.16952151 -0.98552649 0.98552649 0.16952151 52.29 210.04)" gradientUnits="userSpaceOnUse" id="未命名的渐变_501" node-id="8" spreadMethod="pad" x1="142.88" x2="142.88" y1="69.73" y2="11.36"><stop offset="0" stop-color="#ccccff"></stop><stop offset="1" stop-color="#8fccff"></stop></linearGradient><linearGradient gradientTransform="matrix(0.16952151 -0.98552649 0.98552649 0.16952151 52.29 210.04)" gradientUnits="userSpaceOnUse" id="未命名的渐变_570" node-id="11" spreadMethod="pad" x1="149.87" x2="160.38" y1="32.15" y2="32.15"><stop offset="0" stop-color="#ffa1ec"></stop><stop offset="1" stop-color="#ffc3a3"></stop></linearGradient><linearGradient gradientUnits="userSpaceOnUse" id="未命名的渐变_104" node-id="14" spreadMethod="pad" x1="134.45" x2="134.45" y1="73.92" y2="202.42"><stop offset="0" stop-color="#6b70ff"></stop><stop offset="1" stop-color="#4be7ff"></stop></linearGradient><linearGradient gradientUnits="userSpaceOnUse" id="未命名的渐变_501-2" node-id="17" spreadMethod="pad" x1="134.64" x2="134.64" y1="172.46" y2="212.54"><stop offset="0" stop-color="#ccccff"></stop><stop offset="1" stop-color="#8fccff"></stop></linearGradient><linearGradient gradientUnits="userSpaceOnUse" id="未命名的渐变_104-2" node-id="18" spreadMethod="pad" x1="133.66" x2="133.66" y1="183.42" y2="219.92"><stop offset="0" stop-color="#6b70ff"></stop><stop offset="1" stop-color="#4be7ff"></stop></linearGradient><linearGradient gradientUnits="userSpaceOnUse" id="未命名的渐变_104-3" node-id="19" spreadMethod="pad" x1="206.62" x2="206.62" y1="183.42" y2="219.92"><stop offset="0" stop-color="#6b70ff"></stop><stop offset="1" stop-color="#4be7ff"></stop></linearGradient><linearGradient gradientUnits="userSpaceOnUse" id="未命名的渐变_104-4" node-id="20" spreadMethod="pad" x1="62.28" x2="62.28" y1="183.42" y2="219.92"><stop offset="0" stop-color="#6b70ff"></stop><stop offset="1" stop-color="#4be7ff"></stop></linearGradient><linearGradient gradientUnits="userSpaceOnUse" id="未命名的渐变_104-5" node-id="21" spreadMethod="pad" x1="103.45" x2="103.45" y1="103.72" y2="130.44"><stop offset="0" stop-color="#6b70ff"></stop><stop offset="1" stop-color="#4be7ff"></stop></linearGradient><linearGradient gradientUnits="userSpaceOnUse" id="未命名的渐变_411" node-id="22" spreadMethod="pad" x1="103.45" x2="103.45" y1="109.15" y2="126.27"><stop offset="0" stop-color="#3a3fd9"></stop><stop offset="1" stop-color="#3392ff"></stop></linearGradient><linearGradient gradientUnits="userSpaceOnUse" id="未命名的渐变_104-6" node-id="25" spreadMethod="pad" x1="165.45" x2="165.45" y1="103.72" y2="130.44"><stop offset="0" stop-color="#6b70ff"></stop><stop offset="1" stop-color="#4be7ff"></stop></linearGradient><linearGradient gradientUnits="userSpaceOnUse" id="未命名的渐变_411-2" node-id="26" spreadMethod="pad" x1="165.45" x2="165.45" y1="109.15" y2="126.27"><stop offset="0" stop-color="#3a3fd9"></stop><stop offset="1" stop-color="#3392ff"></stop></linearGradient><linearGradient gradientUnits="userSpaceOnUse" id="未命名的渐变_664" node-id="27" spreadMethod="pad" x1="174.83" x2="174.83" y1="184.55" y2="152.78"><stop offset="0" stop-color="#ffccfe"></stop><stop offset="0.0000000000000002220446" stop-color="#fff9db"></stop><stop offset="1" stop-color="#ffcdfd"></stop></linearGradient><linearGradient gradientUnits="userSpaceOnUse" id="未命名的渐变_702-2" node-id="31" spreadMethod="pad" x1="158.88" x2="158.88" y1="188.46" y2="144.62"><stop offset="0" stop-color="#ff6cec"></stop><stop offset="1" stop-color="#ffe0db"></stop></linearGradient><linearGradient gradientUnits="userSpaceOnUse" id="未命名的渐变_664-2" node-id="32" spreadMethod="pad" x1="93.99" x2="93.99" y1="184.55" y2="152.78"><stop offset="0" stop-color="#ffccfe"></stop><stop offset="0.0000000000000002220446" stop-color="#fff9db"></stop><stop offset="1" stop-color="#ffcdfd"></stop></linearGradient><linearGradient gradientUnits="userSpaceOnUse" id="未命名的渐变_702-3" node-id="33" spreadMethod="pad" x1="109.95" x2="109.95" y1="188.46" y2="144.62"><stop offset="0" stop-color="#ff6cec"></stop><stop offset="1" stop-color="#ffe0db"></stop></linearGradient><linearGradient gradientUnits="userSpaceOnUse" id="未命名的渐变_664-3" node-id="34" spreadMethod="pad" x1="134.41" x2="134.41" y1="184.55" y2="152.78"><stop offset="0" stop-color="#ffccfe"></stop><stop offset="0.0000000000000002220446" stop-color="#fff9db"></stop><stop offset="1" stop-color="#ffcdfd"></stop></linearGradient><linearGradient gradientUnits="userSpaceOnUse" id="未命名的渐变_702-4" node-id="35" spreadMethod="pad" x1="134.41" x2="134.41" y1="188.46" y2="144.62"><stop offset="0" stop-color="#ff6cec"></stop><stop offset="1" stop-color="#ffe0db"></stop></linearGradient><linearGradient gradientUnits="userSpaceOnUse" id="未命名的渐变_570-2" node-id="36" spreadMethod="pad" x1="151.5" x2="151.5" y1="47" y2="74"><stop offset="0" stop-color="#ffa1ec"></stop><stop offset="1" stop-color="#ffc3a3"></stop></linearGradient><linearGradient gradientUnits="userSpaceOnUse" id="未命名的渐变_529" node-id="37" spreadMethod="pad" x1="202.94" x2="202.94" y1="110.89" y2="149.04"><stop offset="0" stop-color="#f08e71"></stop><stop offset="1" stop-color="#ffdb8c"></stop></linearGradient><linearGradient gradientTransform="matrix(0.98865174 0.15022559 -0.15022559 0.98865174 21.78 -32.96)" gradientUnits="userSpaceOnUse" id="未命名的渐变_428" node-id="40" spreadMethod="pad" x1="229.14" x2="229.14" y1="90" y2="160"><stop offset="0" stop-color="#ffb999"></stop><stop offset="1" stop-color="#fff533"></stop></linearGradient><linearGradient gradientUnits="userSpaceOnUse" id="未命名的渐变_529-2" node-id="43" spreadMethod="pad" x1="234.16" x2="234.16" y1="102.01" y2="154.84"><stop offset="0" stop-color="#f08e71"></stop><stop offset="1" stop-color="#ffdb8c"></stop></linearGradient><linearGradient gradientUnits="userSpaceOnUse" id="未命名的渐变_428-2" node-id="44" spreadMethod="pad" x1="228.84" x2="228.84" y1="107.86" y2="139.48"><stop offset="0" stop-color="#ffb999"></stop><stop offset="1" stop-color="#fff533"></stop></linearGradient><linearGradient gradientUnits="userSpaceOnUse" id="未命名的渐变_664-4" node-id="45" spreadMethod="pad" x1="51.81" x2="52.29" y1="82.62" y2="36.83"><stop offset="0" stop-color="#ffccfe"></stop><stop offset="0.0000000000000002220446" stop-color="#fff9db"></stop><stop offset="1" stop-color="#ffcdfd"></stop></linearGradient><linearGradient gradientUnits="userSpaceOnUse" id="未命名的渐变_664-5" node-id="46" spreadMethod="pad" x1="72.49" x2="72.97" y1="82.84" y2="37.05"><stop offset="0" stop-color="#ffccfe"></stop><stop offset="0.0000000000000002220446" stop-color="#fff9db"></stop><stop offset="1" stop-color="#ffcdfd"></stop></linearGradient><linearGradient gradientUnits="userSpaceOnUse" id="未命名的渐变_631" node-id="47" spreadMethod="pad" x1="220.28" x2="234.66" y1="181.52" y2="181.52"><stop offset="0" stop-color="#a1ffe4"></stop><stop offset="1" stop-color="#7df8ff"></stop></linearGradient><linearGradient gradientUnits="userSpaceOnUse" id="未命名的渐变_631-2" node-id="50" spreadMethod="pad" x1="220.28" x2="252.44" y1="189.2" y2="189.2"><stop offset="0" stop-color="#a1ffe4"></stop><stop offset="1" stop-color="#7df8ff"></stop></linearGradient><linearGradient gradientUnits="userSpaceOnUse" id="未命名的渐变_631-3" node-id="51" spreadMethod="pad" x1="-117.03" x2="-102.64" y1="-100.13" y2="-100.13"><stop offset="0" stop-color="#a1ffe4"></stop><stop offset="1" stop-color="#7df8ff"></stop></linearGradient><linearGradient gradientUnits="userSpaceOnUse" id="未命名的渐变_631-4" node-id="52" spreadMethod="pad" x1="-117.03" x2="-84.87" y1="-107.8" y2="-107.8"><stop offset="0" stop-color="#a1ffe4"></stop><stop offset="1" stop-color="#7df8ff"></stop></linearGradient></defs><g node-id="376"><path d="M 175.00 56.00 C 175.00 86.38 150.38 111.00 120.00 111.00 C 89.62 111.00 65.00 86.38 65.00 56.00 C 65.00 25.62 89.62 1.00 120.00 1.00 C 150.38 1.00 175.00 25.62 175.00 56.00 Z" fill="none" group-id="1" hidden="true" node-id="291" stroke="#dfe8ef" stroke-dasharray="5 6" stroke-linecap="round" stroke-width="2" target-height="110" target-width="110" target-x="65" target-y="1" visibility="hidden"></path><path d="M 111.00 183.00 C 111.00 213.38 86.38 238.00 56.00 238.00 C 25.62 238.00 1.00 213.38 1.00 183.00 C 1.00 152.62 25.62 128.00 56.00 128.00 C 86.38 128.00 111.00 152.62 111.00 183.00 Z" fill="none" group-id="1" hidden="true" node-id="293" stroke="#dfe8ef" stroke-dasharray="5 6" stroke-linecap="round" stroke-width="2" target-height="110" target-width="110" target-x="1" target-y="128" visibility="hidden"></path><path d="M 288.00 144.50 C 288.00 181.78 257.78 212.00 220.50 212.00 C 183.22 212.00 153.00 181.78 153.00 144.50 C 153.00 107.22 183.22 77.00 220.50 77.00 C 257.78 77.00 288.00 107.22 288.00 144.50 Z" fill="none" group-id="1" hidden="true" node-id="295" stroke="#dfe8ef" stroke-dasharray="5 6" stroke-linecap="round" stroke-width="2" target-height="135" target-width="135" target-x="153" target-y="77" visibility="hidden"></path><path d="M 285.19 113.81 C 285.19 116.21 283.24 118.16 280.84 118.16 C 278.44 118.16 276.49 116.21 276.49 113.81 C 276.49 111.41 278.44 109.46 280.84 109.46 C 283.24 109.46 285.19 111.41 285.19 113.81 Z" fill="#dfe8ef" fill-rule="nonzero" group-id="1" hidden="true" node-id="297" stroke="none" target-height="8.700005" target-width="8.700012" target-x="276.49" target-y="109.46" visibility="hidden"></path><path d="M 86.95 63.34 C 86.95 79.54 73.81 92.68 57.61 92.68 C 41.41 92.68 28.27 79.54 28.27 63.34 C 28.27 47.14 41.41 34.00 57.61 34.00 C 73.81 34.00 86.95 47.14 86.95 63.34 Z" fill="url(#未命名的渐变_702)" fill-rule="nonzero" group-id="1" hidden="true" node-id="299" stroke="none" target-height="58.68" target-width="58.679996" target-x="28.27" target-y="34" visibility="hidden"></path><path d="M 98.83 61.32 C 98.19 65.12 99.50 68.99 102.31 71.63 C 105.13 74.26 109.08 75.31 112.83 74.41 L 132.52 102.27 L 139.71 97.18 L 120.00 69.18 C 122.39 65.23 122.18 60.22 119.47 56.49 C 116.75 52.75 112.06 51.00 107.56 52.06 C 103.06 53.11 99.63 56.76 98.86 61.32 Z" fill="url(#未命名的渐变_501)" fill-rule="nonzero" group-id="1" node-id="301" stroke="none" target-height="51.266747" target-width="41.52263" target-x="98.18738" target-y="51.00325"></path><path d="M 105.08 61.72 C 104.59 64.58 106.51 67.30 109.37 67.79 C 110.06 67.91 110.77 67.89 111.45 67.73 C 114.02 67.14 115.75 64.73 115.50 62.10 C 115.25 59.48 113.09 57.44 110.45 57.35 C 107.82 57.25 105.52 59.13 105.08 61.73 Z" fill="url(#未命名的渐变_570)" fill-rule="nonzero" group-id="1" node-id="303" stroke="#ffffff" stroke-linecap="butt" stroke-width="2" target-height="10.651978" target-width="11.163689" target-x="104.59085" target-y="57.25383"></path><path d="M 134.45 86.09 C 92.27 86.08 57.30 118.76 54.45 160.84 C 54.35 162.23 54.83 163.60 55.78 164.63 C 56.72 165.66 58.05 166.25 59.45 166.26 L 209.39 166.26 C 210.80 166.26 212.14 165.68 213.09 164.65 C 214.05 163.62 214.54 162.24 214.44 160.84 C 211.58 118.76 176.62 86.09 134.45 86.09 Z" fill="url(#未命名的渐变_104)" fill-rule="nonzero" group-id="1" id="_路径_" node-id="64" stroke="none" target-height="80.17785" target-width="160.18936" target-x="54.350594" target-y="86.08294"></path><path d="M 62.66 203.90 L 74.75 203.90 C 88.83 192.27 109.18 192.27 123.26 203.90 L 145.75 203.90 C 159.83 192.27 180.18 192.27 194.26 203.90 L 206.62 203.90 C 206.62 186.88 192.83 173.09 175.81 173.08 L 93.47 173.08 C 85.30 173.08 77.46 176.33 71.68 182.11 C 65.90 187.89 62.66 195.73 62.66 203.90 Z" fill="url(#未命名的渐变_501-2)" fill-rule="nonzero" group-id="1" node-id="306" stroke="none" target-height="30.819992" target-width="143.96265" target-x="62.65735" target-y="173.08"></path><g node-id="377"><path d="M 133.66 191.56 C 126.84 191.56 121.32 197.08 121.32 203.90 C 121.32 210.72 126.84 216.24 133.66 216.24 C 140.48 216.24 146.00 210.72 146.00 203.90 C 146.00 200.63 144.70 197.49 142.39 195.17 C 140.07 192.86 136.93 191.56 133.66 191.56 Z" fill="url(#未命名的渐变_104-2)" fill-rule="nonzero" group-id="1,2" node-id="309" stroke="none" target-height="24.682663" target-width="24.682655" target-x="121.32" target-y="191.55734"></path><path d="M 206.62 191.56 C 199.81 191.58 194.31 197.12 194.32 203.93 C 194.33 210.74 199.86 216.25 206.67 216.24 C 213.48 216.23 219.00 210.71 219.00 203.90 C 219.00 200.62 217.70 197.47 215.37 195.16 C 213.05 192.84 209.90 191.55 206.62 191.56 Z" fill="url(#未命名的渐变_104-3)" fill-rule="nonzero" group-id="1,2" node-id="311" stroke="none" target-height="24.700577" target-width="24.697357" target-x="194.30533" target-y="191.54669"></path><path d="M 62.28 191.56 C 55.46 191.56 49.94 197.08 49.94 203.90 C 49.94 210.72 55.46 216.24 62.28 216.24 C 69.10 216.24 74.62 210.72 74.62 203.90 C 74.62 200.63 73.32 197.49 71.01 195.17 C 68.69 192.86 65.55 191.56 62.28 191.56 Z" fill="url(#未命名的渐变_104-4)" fill-rule="nonzero" group-id="1,2" node-id="313" stroke="none" target-height="24.682663" target-width="24.68266" target-x="49.94" target-y="191.55734"></path><path d="M 68.50 203.90 C 68.50 207.34 65.72 210.12 62.28 210.12 C 58.84 210.12 56.06 207.34 56.06 203.90 C 56.06 200.46 58.84 197.68 62.28 197.68 C 63.93 197.68 65.51 198.33 66.68 199.50 C 67.85 200.67 68.50 202.25 68.50 203.90 Z" fill="#ffffff" fill-rule="nonzero" group-id="1,2" id="_路径_2" node-id="70" stroke="none" target-height="12.442657" target-width="12.442661" target-x="56.06" target-y="197.67734"></path></g><path d="M 139.88 203.90 C 139.88 207.34 137.10 210.12 133.66 210.12 C 130.22 210.12 127.44 207.34 127.44 203.90 C 127.44 200.46 130.22 197.68 133.66 197.68 C 137.10 197.68 139.88 200.46 139.88 203.90 Z" fill="#ffffff" fill-rule="nonzero" group-id="1" id="_路径_3" node-id="71" stroke="none" target-height="12.440002" target-width="12.440002" target-x="127.44" target-y="197.68"></path><path d="M 212.84 203.90 C 212.84 207.34 210.06 210.12 206.62 210.12 C 203.18 210.12 200.40 207.34 200.40 203.90 C 200.40 200.46 203.18 197.68 206.62 197.68 C 208.27 197.68 209.85 198.33 211.02 199.50 C 212.19 200.67 212.84 202.25 212.84 203.90 Z" fill="#ffffff" fill-rule="nonzero" group-id="1" id="_路径_4" node-id="72" stroke="none" target-height="12.442657" target-width="12.442673" target-x="200.4" target-y="197.67734"></path><path d="M 103.45 98.74 C 93.71 98.74 85.81 106.64 85.81 116.38 L 85.81 116.38 C 85.81 126.12 93.71 134.02 103.45 134.02 C 113.19 134.02 121.09 126.12 121.09 116.38 C 121.09 106.64 113.19 98.74 103.45 98.74 Z" fill="#ffffff" fill-rule="nonzero" group-id="1,3" node-id="320" stroke="none" target-height="35.280006" target-width="35.28" target-x="85.81" target-y="98.74"></path><path d="M 117.62 116.38 C 117.62 122.11 114.17 127.28 108.88 129.48 C 103.58 131.67 97.49 130.47 93.43 126.41 C 89.38 122.36 88.17 116.27 90.36 110.97 C 92.55 105.67 97.72 102.22 103.45 102.22 C 111.27 102.22 117.61 108.56 117.62 116.38 Z" fill="url(#未命名的渐变_104-5)" fill-rule="nonzero" group-id="1,3" id="_路径_5" node-id="75" stroke="none" target-height="29.454895" target-width="29.45903" target-x="88.165016" target-y="102.22"></path><path d="M 111.78 116.38 C 111.78 120.98 108.05 124.71 103.45 124.71 C 98.85 124.71 95.12 120.98 95.12 116.38 C 95.12 111.78 98.85 108.05 103.45 108.05 C 108.05 108.05 111.78 111.78 111.78 116.38 Z" fill="url(#未命名的渐变_411)" fill-rule="nonzero" group-id="1,3" id="_路径_6" node-id="76" stroke="none" target-height="16.659996" target-width="16.659996" target-x="95.12" target-y="108.05"></path><path d="M 113.38 110.85 C 113.38 112.90 111.72 114.56 109.67 114.56 C 107.62 114.56 105.96 112.90 105.96 110.85 C 105.96 108.80 107.62 107.14 109.67 107.14 C 111.72 107.14 113.38 108.80 113.38 110.85 Z" fill="#ffffff" fill-rule="nonzero" group-id="1,3" id="_路径_7" node-id="77" stroke="none" target-height="7.419998" target-width="7.419998" target-x="105.96" target-y="107.14"></path><path d="M 165.45 98.74 C 155.71 98.74 147.81 106.64 147.81 116.38 L 147.81 116.38 C 147.81 126.12 155.71 134.02 165.45 134.02 C 175.19 134.02 183.09 126.12 183.09 116.38 C 183.09 106.64 175.19 98.74 165.45 98.74 Z" fill="#ffffff" fill-rule="nonzero" group-id="1,4" node-id="327" stroke="none" target-height="35.280006" target-width="35.28" target-x="147.81" target-y="98.74"></path><path d="M 179.62 116.38 C 179.62 122.11 176.17 127.28 170.88 129.48 C 165.58 131.67 159.49 130.47 155.43 126.41 C 151.38 122.36 150.17 116.27 152.36 110.97 C 154.55 105.67 159.72 102.22 165.45 102.22 C 173.27 102.22 179.61 108.56 179.62 116.38 Z" fill="url(#未命名的渐变_104-6)" fill-rule="nonzero" group-id="1,4" id="_路径_8" node-id="80" stroke="none" target-height="29.454895" target-width="29.45903" target-x="150.16501" target-y="102.22"></path><path d="M 173.78 116.38 C 173.78 120.98 170.05 124.71 165.45 124.71 C 160.85 124.71 157.12 120.98 157.12 116.38 C 157.12 111.78 160.85 108.05 165.45 108.05 C 170.05 108.05 173.78 111.78 173.78 116.38 Z" fill="url(#未命名的渐变_411-2)" fill-rule="nonzero" group-id="1,4" id="_路径_9" node-id="81" stroke="none" target-height="16.659996" target-width="16.660004" target-x="157.12" target-y="108.05"></path><path d="M 175.38 110.85 C 175.38 112.90 173.72 114.56 171.67 114.56 C 169.62 114.56 167.96 112.90 167.96 110.85 C 167.96 108.80 169.62 107.14 171.67 107.14 C 173.72 107.14 175.38 108.80 175.38 110.85 Z" fill="#ffffff" fill-rule="nonzero" group-id="1,4" id="_路径_10" node-id="82" stroke="none" target-height="7.419998" target-width="7.419998" target-x="167.96" target-y="107.14"></path><path d="M 178.00 164.58 L 178.00 173.92 C 177.99 174.77 177.30 175.46 176.45 175.47 L 171.76 175.47 L 171.76 163.03 L 176.45 163.03 C 176.86 163.03 177.26 163.19 177.55 163.48 C 177.85 163.77 178.01 164.17 178.01 164.58 Z" fill="url(#未命名的渐变_664)" fill-rule="nonzero" group-id="1" node-id="333" stroke="none" target-height="12.442657" target-width="6.2500153" target-x="171.76" target-y="163.02734"></path><path d="M 171.71 158.56 L 171.71 179.97 C 171.71 185.64 165.39 189.48 159.71 187.34 L 146.09 180.19 C 146.74 179.36 147.09 178.33 147.09 177.28 L 147.09 161.28 C 147.09 160.23 146.74 159.21 146.09 158.38 L 159.68 151.21 C 165.41 149.04 171.68 152.87 171.76 158.54 Z" fill="url(#未命名的渐变_702-2)" fill-rule="nonzero" group-id="1" node-id="335" stroke="none" target-height="40.440002" target-width="25.669998" target-x="146.09" target-y="149.04"></path><path d="M 90.87 164.68 L 90.87 174.00 C 90.88 174.86 91.57 175.55 92.43 175.55 L 97.11 175.55 L 97.11 163.11 L 92.42 163.11 C 91.56 163.11 90.87 163.80 90.87 164.66 Z" fill="url(#未命名的渐变_664-2)" fill-rule="nonzero" group-id="1" node-id="337" stroke="none" target-height="12.440018" target-width="6.239998" target-x="90.87" target-y="163.11"></path><path d="M 122.78 180.22 L 109.20 187.40 C 103.47 189.56 97.20 185.72 97.13 180.06 L 97.13 158.65 C 97.13 152.97 103.45 149.14 109.13 151.29 L 122.73 158.42 C 122.08 159.25 121.73 160.28 121.73 161.33 L 121.73 177.33 C 121.73 178.38 122.08 179.41 122.73 180.24 Z" fill="url(#未命名的渐变_702-3)" fill-rule="nonzero" group-id="1" node-id="339" stroke="none" target-height="40.42" target-width="25.650002" target-x="97.13" target-y="149.14"></path><path d="M 147.05 161.30 L 147.05 177.30 C 147.05 178.54 146.56 179.73 145.69 180.60 C 144.81 181.48 143.63 181.97 142.39 181.97 L 126.39 181.97 C 125.15 181.98 123.96 181.49 123.08 180.61 C 122.21 179.74 121.71 178.55 121.72 177.31 L 121.72 161.31 C 121.72 158.73 123.80 156.65 126.38 156.64 L 142.38 156.64 C 143.62 156.64 144.81 157.13 145.68 158.00 C 146.56 158.88 147.05 160.06 147.05 161.30 Z" fill="url(#未命名的渐变_664-3)" fill-rule="nonzero" group-id="1" node-id="341" stroke="none" target-height="25.340683" target-width="25.338028" target-x="121.71463" target-y="156.63734"></path><path d="M 137.29 173.52 L 140.15 170.66 C 141.72 169.08 141.72 166.53 140.14 164.96 C 138.57 163.38 136.01 163.38 134.44 164.96 L 134.37 164.90 C 132.80 163.33 130.25 163.33 128.67 164.90 C 127.10 166.48 127.11 169.03 128.68 170.60 L 128.75 170.67 L 131.53 173.45 L 134.45 176.37 Z" fill="url(#未命名的渐变_702-4)" fill-rule="nonzero" group-id="1" node-id="343" stroke="none" target-height="13.0412445" target-width="14.620262" target-x="127.10375" target-y="163.32875"></path><path d="M 134.45 139.22 C 140.65 139.22 145.67 134.20 145.67 128.00 L 123.23 128.00 C 123.23 134.20 128.25 139.22 134.45 139.22 Z" fill="#ffffff" fill-rule="nonzero" group-id="1" id="_路径_11" node-id="89" stroke="none" target-height="11.220001" target-width="22.439995" target-x="123.23" target-y="128"></path><path d="M 172.00 64.00 L 160.00 64.00 L 154.00 48.00 L 150.00 73.00 L 146.00 61.00 L 131.00 61.00" fill="none" group-id="1" hidden="true" node-id="346" stroke="url(#未命名的渐变_570-2)" stroke-linecap="round" stroke-width="2" target-height="25" target-width="41" target-x="131" target-y="48" visibility="hidden"></path><path d="M 218.82 150.78 L 214.44 130.00 L 212.44 108.86 C 212.44 108.86 186.00 119.31 187.09 133.07 L 187.30 134.49 C 190.30 148.00 218.82 150.78 218.82 150.78 Z" fill="url(#未命名的渐变_529)" fill-rule="nonzero" group-id="1" node-id="348" stroke="none" target-height="41.92" target-width="32.820007" target-x="186" target-y="108.86"></path><path d="M 248.32 124.84 L 248.85 129.54 L 249.00 133.99 L 248.81 138.21 L 248.27 142.39 L 247.44 146.16 L 246.33 149.56 L 244.86 152.80 L 243.19 155.50 L 241.33 157.71 L 239.14 159.55 L 236.80 160.80 L 234.27 161.50 L 231.64 161.58 L 229.04 161.09 L 226.40 159.98 L 223.97 158.42 L 221.57 156.34 L 219.21 153.68 L 217.14 150.76 L 215.23 147.41 L 213.47 143.58 L 212.03 139.61 L 210.86 135.32 L 209.96 130.67 L 209.44 125.97 L 209.28 121.52 L 209.48 117.31 L 210.02 113.12 L 210.85 109.35 L 211.96 105.96 L 213.42 102.71 L 215.09 100.02 L 216.95 97.80 L 219.14 95.96 L 221.48 94.72 L 224.02 94.01 L 226.64 93.93 L 229.25 94.43 L 231.89 95.53 L 234.32 97.10 L 236.72 99.17 L 239.08 101.84 L 241.14 104.75 L 243.06 108.10 L 244.82 111.94 L 246.26 115.91 L 247.43 120.20 L 248.32 124.84 Z" fill="url(#未命名的渐变_428)" fill-rule="nonzero" group-id="1,5" node-id="352" stroke="none" target-height="67.6522" target-width="39.720352" target-x="209.28383" target-y="93.93124"></path><path d="M 246.19 125.18 C 243.99 110.68 236.80 99.75 230.13 100.76 C 225.31 101.50 222.13 108.25 221.49 117.40 C 227.33 118.50 234.97 120.90 236.14 126.02 L 236.28 126.91 C 236.68 132.16 230.10 136.91 224.86 139.80 C 228.15 148.44 233.26 154.00 238.10 153.26 C 244.77 152.25 248.39 139.67 246.19 125.18 Z" fill="url(#未命名的渐变_529-2)" fill-rule="nonzero" group-id="1" node-id="355" stroke="none" target-height="54.25" target-width="26.899994" target-x="221.49" target-y="99.75"></path><path d="M 236.28 126.91 L 236.14 126.02 C 234.97 120.90 227.33 118.50 221.49 117.40 C 221.06 125.02 222.21 132.64 224.86 139.80 C 230.10 136.89 236.68 132.16 236.28 126.91 Z" fill="url(#未命名的渐变_428-2)" fill-rule="nonzero" group-id="1" node-id="357" stroke="none" target-height="22.400002" target-width="15.620575" target-x="221.05942" target-y="117.4"></path><path d="M 43.59 48.41 L 60.14 48.41 L 64.79 77.31 L 60.44 78.31 L 57.19 65.91 L 46.24 67.21 L 43.00 78.26 L 38.90 77.51 Z M 47.84 61.71 L 56.09 61.71 L 54.00 53.91 C 52.70 53.85 51.43 53.73 50.20 53.56 Z" fill="url(#未命名的渐变_664-4)" fill-rule="nonzero" group-id="1" hidden="true" node-id="359" stroke="none" target-height="29.899998" target-width="25.89" target-x="38.9" target-y="48.41" visibility="hidden"></path><path d="M 75.39 48.41 L 76.29 78.16 L 68.79 78.16 L 69.69 48.41 Z" fill="url(#未命名的渐变_664-5)" fill-rule="nonzero" group-id="1" hidden="true" node-id="361" stroke="none" target-height="29.750004" target-width="7.5" target-x="68.79" target-y="48.41" visibility="hidden"></path><path d="M 222.35 179.45 L 232.67 179.45 C 233.81 179.45 234.74 180.38 234.74 181.52 L 234.74 181.52 C 234.74 182.66 233.81 183.59 232.67 183.59 L 222.35 183.59 C 221.21 183.59 220.28 182.66 220.28 181.52 L 220.28 181.52 C 220.28 180.38 221.21 179.45 222.35 179.45 Z" fill="url(#未命名的渐变_631)" fill-rule="nonzero" group-id="1" hidden="true" node-id="363" stroke="none" target-height="4.1399994" target-width="14.460007" target-x="220.28" target-y="179.45" visibility="hidden"></path><path d="M 222.35 187.13 L 250.38 187.13 C 251.52 187.13 252.45 188.06 252.45 189.20 L 252.45 189.20 C 252.45 190.34 251.52 191.27 250.38 191.27 L 222.35 191.27 C 221.21 191.27 220.28 190.34 220.28 189.20 L 220.28 189.20 C 220.28 188.06 221.21 187.13 222.35 187.13 Z" fill="url(#未命名的渐变_631-2)" fill-rule="nonzero" group-id="1" hidden="true" node-id="365" stroke="none" target-height="4.1399994" target-width="32.17" target-x="220.28" target-y="187.13" visibility="hidden"></path><path d="M 33.06 103.19 L 22.74 103.19 L 21.93 103.02 L 21.28 102.58 L 20.84 101.93 L 20.67 101.12 L 20.67 101.12 L 20.84 100.31 L 21.28 99.66 L 21.93 99.22 L 22.74 99.05 L 33.06 99.05 L 33.87 99.22 L 34.52 99.66 L 34.96 100.31 L 35.13 101.12 L 35.13 101.12 L 34.96 101.93 L 34.52 102.58 L 33.87 103.02 L 33.06 103.19 Z" fill="url(#未命名的渐变_631-3)" fill-rule="nonzero" group-id="1,6" hidden="true" node-id="369" stroke="none" target-height="4.1399994" target-width="14.459999" target-x="20.670002" target-y="99.05" visibility="hidden"></path><path d="M 33.06 110.87 L 5.03 110.87 L 4.22 110.70 L 3.57 110.26 L 3.13 109.61 L 2.96 108.80 L 2.96 108.80 L 3.13 107.99 L 3.57 107.34 L 4.22 106.90 L 5.03 106.73 L 33.06 106.73 L 33.87 106.90 L 34.52 107.34 L 34.96 107.99 L 35.13 108.80 L 35.13 108.80 L 34.96 109.61 L 34.52 110.26 L 33.87 110.70 L 33.06 110.87 Z" fill="url(#未命名的渐变_631-4)" fill-rule="nonzero" group-id="1,7" hidden="true" node-id="374" stroke="none" target-height="4.1399994" target-width="32.17" target-x="2.959999" target-y="106.73" visibility="hidden"></path></g></svg>